<svg width="0" height="0" class="hidden">
  <symbol id="best_score" xmlns="http://www.w3.org/2000/svg" viewBox="0 0 113.48 122.88">
    <defs></defs>
    <title>trophy</title>
    <path fill="#f39d00" d="M3.21,18.74H19.86q0-4,.06-8.26V0H93.05V10.49c0,2.92,0,5.66,0,8.26h17.24a3.08,3.08,0,0,1,3.07,2.93,77.67,77.67,0,0,1-.4,13.9A34,34,0,0,1,109.11,48a21.77,21.77,0,0,1-8.8,8.6A31.91,31.91,0,0,1,86.41,60C83.14,65.43,78.78,68,73.68,72.67c-6.17,4.71-10.81,8.26-7.2,19.13h5.39a7.84,7.84,0,0,1,7.82,7.82v3.15h.77A7.69,7.69,0,0,1,85.91,105h0a7.67,7.67,0,0,1,2.26,5.45v5.23a1.77,1.77,0,0,1-1.77,1.77H26.58a1.77,1.77,0,0,1-1.77-1.77v-5.23A7.66,7.66,0,0,1,27.07,105h0a7.66,7.66,0,0,1,5.44-2.26h.77V99.62a7.75,7.75,0,0,1,2.3-5.51v0a7.81,7.81,0,0,1,5.51-2.29h6.06c3.22-10.26-1-13.58-6.83-18.17A44.47,44.47,0,0,1,27.34,60,31.87,31.87,0,0,1,13,56.54a21.47,21.47,0,0,1-8.73-8.6A34.07,34.07,0,0,1,.51,35.58,78.1,78.1,0,0,1,.13,21.9v-.08a3.08,3.08,0,0,1,3.09-3.08ZM92.71,30a121.67,121.67,0,0,1-2,18,15.17,15.17,0,0,0,5-1.9,10.49,10.49,0,0,0,3.69-3.89,18,18,0,0,0,1.93-6,45.37,45.37,0,0,0,.5-6.25H92.71ZM20.12,30H12a49.78,49.78,0,0,0,.45,6.27,18.41,18.41,0,0,0,1.8,6,10.13,10.13,0,0,0,3.57,3.88A14.57,14.57,0,0,0,22.54,48a92,92,0,0,1-2.42-18Z"></path>
    <path fill="#f9c809" d="M20.08,21.82H3.21C2.75,31.1,3.34,40,7,46.43c3.43,6.11,9.7,10.15,20.62,10.46a27.9,27.9,0,0,1-3.48-5.51c-6.56-.88-10.36-3.59-12.54-7.67S8.94,34.32,8.94,28.14a1.23,1.23,0,0,1,1.23-1.23h9.91V21.82Zm72.77,5.1h10.82a1.23,1.23,0,0,1,1.23,1.22c0,6.2-.56,11.54-2.84,15.6s-6.16,6.75-12.7,7.64a25.38,25.38,0,0,1-3.69,5.52c11-.29,17.29-4.33,20.77-10.45,3.67-6.47,4.29-15.34,3.84-24.62H92.85v5.09Z"></path>
    <path fill="#f8b705" d="M50.71,93h6V75.21c-22.17-7.88-24.26-35-29.55-72.57H22.53V29.41C23,39.6,24.68,47.14,27,52.91a38.19,38.19,0,0,0,8.39,12.8,68.65,68.65,0,0,0,6.71,5.78C49.11,77,54.19,81,50.71,93Z"></path>
    <path fill="#fac809" d="M56.71,93H63c-3.88-12.71,1.68-17,9-22.55,8.05-6.14,18.5-14.12,18.5-40.35V2.64H27.16C30.58,26.92,32.66,46.81,39.67,60A39.14,39.14,0,0,0,49,71.13a29.3,29.3,0,0,0,5.47,3.17,19.1,19.1,0,0,0,2.21.74v.15l.07,0V93Z"></path>
    <path fill="#f39d00" d="M58.26,20.13,61.06,27l7.39.56a1.9,1.9,0,0,1,1,3.41l-5.59,4.74,1.76,7.18a1.9,1.9,0,0,1-1.41,2.29,1.88,1.88,0,0,1-1.49-.26L56.5,41l-6.29,3.89a1.9,1.9,0,0,1-2.62-.62,1.85,1.85,0,0,1-.23-1.44l1.75-7.18-5.66-4.8a1.91,1.91,0,0,1,1.09-3.35L51.93,27l2.81-6.84a1.91,1.91,0,0,1,3.52,0Z"></path>
    <polygon fill="#fff" points="56.5 20.86 59.75 28.78 68.31 29.43 61.76 34.98 63.79 43.3 56.5 38.79 49.21 43.3 51.24 34.98 44.69 29.43 53.24 28.78 56.5 20.86 56.5 20.86 56.5 20.86"></polygon>
    <path fill="#fff" d="M76.62,47.62l-.07.1a3.79,3.79,0,0,0-5.17.83l-.1-.08a3.52,3.52,0,0,0,.62-2.75,3.57,3.57,0,0,0-1.44-2.42,26.79,26.79,0,0,0,2.82.53,3.58,3.58,0,0,0,2.42-1.45l.1.07a3.81,3.81,0,0,0,.82,5.17ZM84.27,34.8l-.07.1a3.78,3.78,0,0,0-5.17.82l-.1-.07a3.79,3.79,0,0,0-.83-5.17l.07-.1a3.8,3.8,0,0,0,5.18-.83l.09.08a3.79,3.79,0,0,0,.83,5.17Zm.06-13.56-.13.18a6.94,6.94,0,0,0-9.46,1.51l-.18-.13a6.5,6.5,0,0,0,1.14-5,6.49,6.49,0,0,0-2.65-4.43l.13-.18a6.94,6.94,0,0,0,9.46-1.51l.18.13a6.5,6.5,0,0,0-1.14,5,6.51,6.51,0,0,0,2.65,4.43Z"></path>
  </symbol>
  <symbol xmlns="http://www.w3.org/2000/svg" xml:space="preserve" version="1.1" shape-rendering="geometricPrecision" text-rendering="geometricPrecision" image-rendering="optimizeQuality" fill-rule="evenodd" clip-rule="evenodd" xmlns:xlink="http://www.w3.org/1999/xlink" xmlnsXodm="http://www.corel.com/coreldraw/odm/2003" viewBox="0 0 360 511.48" id="medal">
    <g id="Layer_x0020_1">
      <metadata id="CorelCorpID_0Corel-Layer"></metadata>
      <polygon fill="#D0401B" points="144.83,306.61 296.28,280.53 360,429.51 281.2,428.61 216.45,481.14 "></polygon>
      <polygon fill="#FF6600" points="231.94,290.08 69.57,294.38 0,459.86 78.8,458.95 143.55,511.48 "></polygon>
      <path fill="#F5C800" d="M183.21 0.03c9.35,-0.4 16.72,2.86 24.15,7.59 9.44,5.98 20.06,17.8 33.17,25.3 18.45,10.54 52.61,-4 70.11,21.99 10.21,15.16 10.69,27.04 11.45,38.78 0.82,12.67 3.04,24.32 16,41.47 21.47,28.38 25.94,47.27 14.88,66.96 -7.54,13.42 -23.41,20.88 -27.09,29.38 -7.81,18.09 0.83,31.72 -9.87,52.81 -7.43,14.62 -18.89,24.26 -34.16,29.18 -12.88,4.14 -25.8,-1.85 -36.1,2.48 -18.12,7.61 -31.48,25.3 -45.89,29.77 -5.57,1.73 -11.11,2.58 -16.65,2.54 -5.53,0.04 -11.08,-0.81 -16.64,-2.54 -14.42,-4.47 -27.78,-22.16 -45.9,-29.77 -10.3,-4.33 -23.22,1.66 -36.1,-2.48 -15.26,-4.92 -26.73,-14.56 -34.16,-29.18 -10.7,-21.09 -2.06,-34.72 -9.87,-52.81 -3.68,-8.5 -19.55,-15.96 -27.09,-29.38 -11.06,-19.69 -6.58,-38.58 14.88,-66.96 12.96,-17.15 15.18,-28.8 16,-41.47 0.76,-11.74 1.24,-23.62 11.45,-38.78 17.5,-25.99 51.66,-11.45 70.11,-21.99 13.12,-7.5 23.73,-19.32 33.17,-25.3 7.44,-4.73 14.81,-7.99 24.15,-7.59z"></path>
      <path fill="#FFDD61" d="M183.21 0.04c9.35,-0.41 16.71,2.86 24.15,7.58 9.44,5.98 20.06,17.8 33.17,25.3 14.67,8.38 39.28,0.91 57.54,10.56l-206.12 271.42c-2.45,-0.2 -4.92,-0.62 -7.38,-1.41 -15.27,-4.92 -26.73,-14.55 -34.16,-29.18 -10.7,-21.09 -2.06,-34.72 -9.87,-52.81 -3.68,-8.5 -19.55,-15.96 -27.09,-29.38 -11.06,-19.69 -6.58,-38.58 14.87,-66.96 12.97,-17.14 15.19,-28.8 16.01,-41.47 0.76,-11.74 1.24,-23.62 11.44,-38.78 17.51,-26 51.68,-11.45 70.12,-21.99 13.12,-7.5 23.74,-19.32 33.17,-25.3 7.44,-4.72 14.81,-7.99 24.15,-7.58z"></path>
      <circle fill="#E37E00" cx="182.71" cy="176.83" r="130.04"></circle>
      <path fill="#F5C800" d="M182.71 72.88c57.41,0 103.94,46.54 103.94,103.95 0,57.41 -46.53,103.95 -103.94,103.95 -57.41,0 -103.95,-46.54 -103.95,-103.95 0,-57.41 46.54,-103.95 103.95,-103.95z"></path>
      <path fill="#FFDD61" d="M182.71 72.88c27.48,0 52.49,10.67 71.07,28.09l-127.44 163.2c-4.62,-2.98 -8.99,-6.33 -13.07,-9.99 -21.18,-19.02 -34.51,-46.63 -34.51,-77.35 0,-57.41 46.54,-103.95 103.95,-103.95z"></path>
      <path fill="#E37E00" fill-rule="nonzero" d="M185.78 116.08l16.31 38.19 41.36 3.71c1.83,0.16 3.18,1.77 3.02,3.59 -0.07,0.89 -0.49,1.67 -1.12,2.21l0 0 -31.29 27.33 9.26 40.5c0.41,1.79 -0.71,3.57 -2.5,3.98 -0.92,0.21 -1.83,0.02 -2.56,-0.45l-35.55 -21.26 -35.66 21.32c-1.57,0.94 -3.61,0.43 -4.55,-1.14 -0.46,-0.77 -0.57,-1.64 -0.39,-2.45l0 0 9.26 -40.5 -31.3 -27.33c-1.38,-1.2 -1.52,-3.3 -0.31,-4.68 0.61,-0.7 1.46,-1.08 2.32,-1.13l41.26 -3.7 16.32 -38.21c0.72,-1.69 2.67,-2.47 4.35,-1.75 0.84,0.35 1.45,1 1.77,1.77l0 0z"></path>
    </g>
  </symbol>
</svg>